<svg width="48" height="48" viewBox="0 0 48 48" fill="none" xmlns="http://www.w3.org/2000/svg">
<rect width="48" height="48" rx="5" fill="#4C1D95"/>
<path d="M21.3182 26.0455V36H15.7614V12.7273H21.1364V21.75H21.3295C21.7235 20.6742 22.3674 19.8333 23.2614 19.2273C24.1629 18.6212 25.2652 18.3182 26.5682 18.3182C27.7955 18.3182 28.8636 18.5909 29.7727 19.1364C30.6818 19.6742 31.3864 20.4356 31.8864 21.4205C32.3939 22.4053 32.6439 23.5568 32.6364 24.875V36H27.0795V25.9659C27.0871 24.9962 26.8447 24.2386 26.3523 23.6932C25.8598 23.1477 25.1667 22.875 24.2727 22.875C23.6894 22.875 23.1742 23.0038 22.7273 23.2614C22.2879 23.5114 21.9432 23.8712 21.6932 24.3409C21.4508 24.8106 21.3258 25.3788 21.3182 26.0455Z" fill="white"/>
</svg>
